<svg id="SvgjsSvg1001" width="288" height="288" xmlns="http://www.w3.org/2000/svg" version="1.1" xmlns:xlink="http://www.w3.org/1999/xlink" xmlns:svgjs="http://svgjs.com/svgjs"><defs id="SvgjsDefs1002"></defs><g id="SvgjsG1008"><svg xmlns="http://www.w3.org/2000/svg" viewBox="0 0 456 440" width="288" height="288"><rect width="457" height="441" x="-.4" y="-.4" fill="#a7ff83" class="colorfff svgShape"></rect><g transform="matrix(1.06 0 0 1.06 227.17 224)"><path fill="#071a52" d="m 4795,8909 c -55,-5 -106,-11 -112,-14 -10,-3 -13,-106 -15,-447 -3,-387 -5,-443 -18,-441 -8,1 -49,10 -90,21 l -75,20 -5,148 c -3,82 -4,266 -1,408 l 4,259 -59,-7 c -32,-4 -97,-14 -144,-24 l -85,-17 -5,-370 c -3,-203 -8,-375 -12,-381 -5,-7 -38,-17 -75,-24 -36,-6 -82,-18 -101,-26 -19,-7 -38,-11 -43,-8 -5,3 -9,148 -9,325 0,303 -1,322 -21,360 -14,28 -25,39 -35,35 -9,-3 -53,-17 -99,-30 -141,-41 -125,16 -125,-452 v -405 l -74,-78 c -41,-43 -88,-103 -106,-134 -17,-31 -33,-57 -35,-57 -2,0 -14,19 -28,43 -36,60 -128,144 -191,173 -78,36 -156,47 -286,41 -174,-7 -279,-56 -365,-170 -72,-94 -89,-151 -89,-297 -1,-121 0,-127 32,-194 17,-37 32,-72 32,-76 0,-5 -10,-10 -23,-12 -21,-3 -22,-6 -22,-123 v -120 h 90 90 l 5,55 c 3,30 10,54 15,53 6,-1 30,-10 55,-20 38,-15 84,-18 309,-19 l 265,-2 12,-59 c 31,-150 131,-330 251,-451 l 63,-62 2,-2437 3,-2436 125,-39 c 68,-21 130,-36 137,-34 11,4 13,445 13,2380 0,1603 3,2377 10,2381 6,4 27,1 46,-5 20,-7 68,-18 108,-24 l 71,-12 5,-2405 5,-2404 90,-17 c 50,-9 112,-18 139,-20 l 48,-3 2,1687 c 0,927 4,1690 8,1693 7,8 158,-96 181,-123 9,-12 12,-377 12,-1653 0,-900 3,-1640 6,-1644 4,-3 69,-9 146,-12 l 140,-6 6,204 c 4,112 7,806 7,1542 0,1063 3,1337 13,1337 6,0 53,-29 102,-65 l 90,-65 5,-1477 5,-1478 112,3 c 61,2 124,7 140,11 l 28,7 5,1355 c 4,1139 7,1354 19,1351 7,-1 58,-35 112,-73 l 99,-71 V 2509 1240 h 28 c 40,0 245,41 260,53 9,7 12,246 12,1133 0,768 3,1124 10,1124 9,0 173,-114 205,-142 7,-6 10,-336 10,-951 v -942 l 35,-70 c 41,-82 33,-81 176,-27 l 99,37 5,853 c 3,558 8,852 15,852 6,0 56,-32 113,-72 l 102,-72 v -635 -635 l 41,-63 c 23,-35 48,-63 55,-63 8,0 62,31 119,68 l 105,68 4,502 c 2,280 7,507 12,511 5,5 51,-22 104,-63 l 95,-71 6,-75 c 4,-41 7,-161 8,-267 l 1,-191 46,-61 c 25,-34 50,-61 55,-61 6,0 50,35 100,78 l 90,77 -2,132 c -2,73 0,135 3,139 4,3 40,-19 81,-50 40,-31 78,-56 83,-56 5,0 59,47 119,105 l 110,105 -25,18 c -13,9 -74,53 -135,98 -60,44 -267,192 -460,329 -192,137 -393,279 -445,317 -52,37 -192,137 -310,221 -118,84 -435,311 -705,503 -269,193 -715,509 -990,703 -275,194 -507,360 -515,368 -18,18 -63,-21 420,354 201,155 408,316 460,357 149,116 873,675 1642,1267 401,309 830,640 896,692 23,19 42,38 42,43 0,5 -64,59 -142,120 -79,61 -180,141 -225,178 -45,37 -86,67 -91,67 -5,0 -32,-27 -60,-60 l -52,-60 v -167 -167 l -100,-73 c -55,-40 -103,-73 -107,-73 -3,0 -7,183 -8,408 -1,393 -2,408 -21,421 -66,47 -206,126 -214,121 -5,-3 -27,-33 -49,-66 l -41,-61 v -543 -542 l -107,-75 c -60,-42 -111,-74 -115,-71 -5,2 -8,343 -8,757 0,591 -3,756 -12,763 -7,6 -58,25 -113,43 -55,18 -105,35 -111,37 -7,2 -26,-22 -44,-54 l -32,-58 -3,-878 c -1,-483 -7,-882 -11,-887 -31,-29 -200,-147 -206,-143 -5,2 -8,474 -8,1048 0,1025 0,1044 -20,1055 -25,13 -251,52 -267,46 -10,-4 -13,-240 -13,-1199 V 6473 l -107,-81 c -60,-44 -111,-78 -115,-75 -5,2 -8,584 -8,1293 0,709 -4,1291 -8,1294 -4,2 -70,8 -145,12 l -137,7 v -712 c 0,-452 -4,-711 -10,-711 -5,0 -22,25 -36,55 -15,31 -60,97 -101,147 l -73,92 2,561 3,560 -40,1 c -22,1 -85,-2 -140,-7 z M 4399,7675 c 112,-27 187,-71 281,-165 132,-131 184,-255 184,-435 0,-167 -62,-313 -184,-435 -126,-125 -245,-175 -415,-173 -170,1 -301,59 -421,185 -116,123 -174,266 -174,432 0,168 60,308 184,431 152,151 345,207 545,160 z M 3202,7518 c 46,-35 70,-87 70,-152 1,-98 -40,-165 -113,-186 -18,-6 -99,-10 -179,-10 -131,0 -150,2 -190,23 -118,60 -122,262 -7,332 41,25 45,25 213,23 168,-3 171,-3 206,-30 z M 5190,6388 c 0,-213 -4,-299 -13,-316 -14,-27 -178,-153 -189,-146 -4,3 -8,104 -8,225 v 219 l 60,76 c 33,42 77,111 97,155 21,43 41,79 45,79 4,0 8,-132 8,-292 z m -520,-472 v -242 l -27,-25 c -48,-43 -139,-109 -152,-109 -8,0 -11,72 -9,286 3,243 5,288 18,294 25,13 155,47 163,43 4,-2 7,-113 7,-247 z" transform="matrix(.05 0 0 -.05 -259.5 248.19)" class="color1f1f1f svgShape"></path><path fill="#071a52" d="m 3215,8427 c -129,-66 -303,-179 -311,-202 -3,-8 13,-39 36,-69 l 42,-55 136,-3 137,-3 5,-50 5,-50 84,-3 c 46,-2 88,1 93,6 5,5 10,88 12,185 l 3,176 -46,65 c -25,36 -53,66 -61,65 -8,0 -69,-28 -135,-62 z" transform="matrix(.05 0 0 -.05 -255.046 254.77)" class="color1f1f1f svgShape"></path><path fill="#071a52" d="m 2082,7477 -82,-96 v -120 c 0,-76 -4,-122 -11,-127 -6,-3 -49,-9 -95,-12 -59,-3 -87,-9 -97,-21 -22,-25 -147,-245 -147,-258 0,-9 46,-13 173,-15 l 172,-3 5,-1670 5,-1670 h 135 135 l 3,1981 2,1981 -58,63 -58,63 z" transform="matrix(.05 0 0 -.05 -254.29 250.75)" class="color1f1f1f svgShape"></path><path fill="#071a52" d="m 7719,6981 c -107,-42 -178,-119 -220,-236 -27,-76 -38,-322 -19,-434 34,-201 171,-334 344,-334 192,-1 312,96 363,293 12,47 17,107 17,215 0,212 -28,307 -120,405 -70,75 -132,103 -234,107 -65,3 -96,-1 -131,-16 z m 205,-205 c 60,-46 86,-134 86,-297 0,-168 -29,-250 -101,-287 -85,-45 -168,-13 -214,82 -51,105 -45,374 10,458 51,77 150,97 219,44 z" transform="matrix(.05 0 0 -.05 -258.262 253.283)" class="color1f1f1f svgShape"></path><path fill="#071a52" d="m 8508,6899 c -74,-38 -103,-159 -55,-229 51,-76 124,-98 200,-61 93,45 125,147 72,236 -42,73 -138,96 -217,54 z" transform="matrix(.05 0 0 -.05 -258.511 253.883)" class="color1f1f1f svgShape"></path><path fill="#071a52" d="m 2812,6645 c -81,-18 -134,-49 -199,-117 -93,-99 -128,-206 -121,-370 4,-85 9,-105 41,-172 85,-178 220,-256 447,-256 204,0 336,56 416,177 103,156 117,340 37,503 -41,84 -116,166 -182,200 -95,48 -302,64 -439,35 z m 368,-270 c 16,-8 42,-32 57,-52 24,-31 28,-47 31,-112 4,-100 -22,-155 -88,-188 -40,-21 -59,-23 -195,-23 -137,0 -155,2 -195,23 -60,30 -90,88 -90,171 1,94 41,163 110,189 8,3 88,6 178,6 126,1 169,-2 192,-14 z" transform="matrix(.05 0 0 -.05 -255.19 253.147)" class="color1f1f1f svgShape"></path><path fill="#071a52" d="m 1513,6578 c -23,-30 -153,-360 -153,-389 0,-6 81,-8 203,-7 l 202,3 v 200 200 l -121,3 c -89,2 -124,-1 -131,-10 z" transform="matrix(.05 0 0 -.05 -253.875 253.589)" class="color1f1f1f svgShape"></path><path fill="#071a52" d="m 6729,6413 c -30,-26 -85,-72 -122,-102 -37,-30 -67,-62 -67,-70 0,-9 24,-43 53,-75 l 53,-60 75,62 c 40,33 77,58 82,53 4,-4 6,-106 5,-227 l -3,-219 -90,-5 -90,-5 v -85 -85 l 239,-3 c 132,-1 242,1 246,5 3,5 4,45 2,90 l -3,82 -72,3 -72,3 -5,340 -5,340 -86,3 -85,3 z" transform="matrix(.05 0 0 -.05 -257.496 253.069)" class="color1f1f1f svgShape"></path><path fill="#071a52" d="m 8580,6253 c -167,-58 -243,-208 -242,-483 0,-203 34,-318 123,-415 60,-65 124,-90 234,-90 82,0 97,3 157,33 98,48 156,128 189,262 18,71 18,324 0,405 -31,140 -110,244 -214,284 -70,25 -180,28 -247,4 z m 198,-193 c 53,-33 82,-108 89,-232 13,-260 -44,-386 -173,-376 -62,5 -106,35 -137,91 -19,37 -22,61 -25,196 -4,164 5,224 40,274 47,66 140,87 206,47 z" transform="matrix(.05 0 0 -.05 -258.822 252.811)" class="color1f1f1f svgShape"></path><path fill="#071a52" d="m 1285,5910 c -12,-19 -54,-255 -47,-262 4,-4 79,-9 167,-10 l 160,-3 5,-250 5,-250 h 95 95 v 390 390 l -237,3 c -152,1 -239,-1 -243,-8 z" transform="matrix(.05 0 0 -.05 -253.916 252.791)" class="color1f1f1f svgShape"></path><path fill="#071a52" d="m 7745,5771 c -134,-36 -221,-129 -261,-278 -18,-70 -21,-328 -3,-412 25,-124 115,-238 217,-274 71,-26 172,-24 243,2 109,41 183,132 214,262 19,84 20,310 0,402 -29,138 -97,237 -192,279 -49,22 -169,32 -218,19 z m 148,-198 c 15,-7 39,-32 54,-53 36,-55 51,-191 36,-329 -14,-123 -37,-172 -95,-202 -79,-40 -164,-4 -209,88 -22,44 -24,60 -24,203 0,211 24,271 122,305 40,14 70,11 116,-12 z" transform="matrix(.05 0 0 -.05 -258.234 252.502)" class="color1f1f1f svgShape"></path><path fill="#071a52" d="m 5929,5667 c -109,-31 -182,-97 -235,-212 -43,-94 -54,-161 -54,-334 0,-230 34,-343 131,-446 68,-72 132,-98 250,-99 79,-1 90,2 161,36 168,83 237,250 225,548 -8,215 -38,310 -128,405 -68,72 -141,107 -234,111 -38,2 -91,-2 -116,-9 z m 154,-211 c 41,-17 80,-62 102,-120 14,-37 16,-74 13,-232 -3,-180 -4,-191 -28,-233 -30,-54 -64,-80 -112,-87 -86,-14 -149,20 -189,103 -20,42 -23,67 -27,209 -5,175 6,238 50,304 43,63 121,86 191,56 z" transform="matrix(.05 0 0 -.05 -257.078 252.329)" class="color1f1f1f svgShape"></path><path fill="#071a52" d="m 2514,5507 c -2,-7 -3,-67 -2,-133 l 3,-119 h 468 468 l 2,130 2,130 -468,3 c -379,2 -469,0 -473,-11 z" transform="matrix(.05 0 0 -.05 -255.155 253.012)" class="color1f1f1f svgShape"></path><path fill="#071a52" d="m 7020,5309 c -61,-24 -100,-85 -100,-154 0,-55 18,-93 60,-128 112,-95 298,23 260,165 -27,97 -131,152 -220,117 z" transform="matrix(.05 0 0 -.05 -257.516 252.818)" class="color1f1f1f svgShape"></path><path fill="#071a52" d="m 1197,5284 c -9,-9 -9,-470 0,-582 l 6,-82 281,2 281,3 v 125 125 l -45,7 c -25,4 -106,5 -181,1 -109,-4 -138,-3 -145,8 -5,8 -11,100 -14,204 l -5,190 -85,3 c -47,1 -89,0 -93,-4 z" transform="matrix(.05 0 0 -.05 -253.932 252.479)" class="color1f1f1f svgShape"></path><path fill="#071a52" d="m 5213,5188 c -90,-19 -146,-126 -112,-215 29,-78 115,-124 191,-101 118,35 166,170 91,258 -45,54 -102,73 -170,58 z" transform="matrix(.05 0 0 -.05 -256.288 252.736)" class="color1f1f1f svgShape"></path><path fill="#071a52" d="m 8585,4937 c -142,-119 -137,-106 -75,-177 29,-33 55,-60 60,-60 4,0 13,7 20,15 18,22 130,105 141,105 6,0 8,-110 7,-267 l -3,-268 -90,-5 -90,-5 2,-70 c 2,-38 5,-76 8,-83 3,-10 53,-12 222,-10 l 218,3 v 80 80 l -49,7 c -86,12 -79,-25 -75,376 l 4,357 -100,2 -100,3 z" transform="matrix(.05 0 0 -.05 -258.742 252.072)" class="color1f1f1f svgShape"></path><path fill="#071a52" d="m 2515,4957 c -3,-7 -4,-105 -3,-217 l 3,-205 h 90 90 l 5,75 5,75 h 270 270 l 5,-75 5,-75 h 95 95 l 8,85 c 4,47 6,144 5,215 l -3,130 -468,3 c -374,2 -469,0 -472,-11 z" transform="matrix(.05 0 0 -.05 -255.157 252.482)" class="color1f1f1f svgShape"></path><path fill="#071a52" d="m 6891,4700 c -136,-28 -225,-128 -260,-288 -16,-76 -14,-275 4,-351 41,-174 153,-271 311,-271 97,0 160,25 225,90 65,65 94,133 109,255 11,89 0,251 -24,327 -52,172 -203,270 -365,238 z m 143,-200 c 61,-54 71,-88 71,-240 0,-166 -13,-216 -66,-265 -32,-29 -47,-35 -83,-35 -56,0 -104,32 -133,90 -21,40 -23,58 -23,195 0,169 11,209 69,258 48,40 117,38 165,-3 z" transform="matrix(.05 0 0 -.05 -257.63 251.85)" class="color1f1f1f svgShape"></path><path fill="#071a52" d="m 7896,4449 c -57,-14 -105,-54 -132,-113 -21,-44 -24,-66 -24,-167 0,-138 16,-195 70,-249 66,-66 181,-72 257,-14 19,14 45,49 60,77 26,48 28,61 28,177 0,114 -2,130 -26,181 -29,61 -63,91 -124,108 -46,12 -55,12 -109,0 z m 99,-131 c 30,-26 45,-78 45,-158 0,-80 -15,-132 -45,-157 -59,-51 -119,-14 -136,85 -16,90 -4,185 28,222 30,37 71,39 108,8 z" transform="matrix(.05 0 0 -.05 -258.145 251.995)" class="color1f1f1f svgShape"></path><path fill="#071a52" d="m 2850,4369 c -134,-23 -249,-109 -310,-232 -99,-203 -45,-476 121,-607 84,-66 156,-83 346,-78 135,3 166,7 215,27 156,61 263,242 261,441 -3,237 -147,414 -365,450 -75,12 -191,11 -268,-1 z m 336,-284 c 108,-63 114,-264 11,-339 -26,-19 -45,-21 -200,-24 -193,-3 -208,1 -263,73 -50,66 -46,189 9,252 49,56 73,62 246,63 147,0 156,-1 197,-25 z" transform="matrix(.05 0 0 -.05 -255.188 251.623)" class="color1f1f1f svgShape"></path><path fill="#071a52" d="m 1250,4324 c 0,-20 48,-213 60,-242 l 10,-22 222,2 223,3 v 135 135 l -257,3 c -230,2 -258,1 -258,-14 z" transform="matrix(.05 0 0 -.05 -253.915 252.22)" class="color1f1f1f svgShape"></path><path fill="#071a52" d="m 1406,3781 c -3,-5 20,-73 52,-152 l 57,-144 h 125 125 v 150 150 l -177,3 c -98,1 -179,-2 -182,-7 z" transform="matrix(.05 0 0 -.05 -253.868 251.82)" class="color1f1f1f svgShape"></path><path fill="#071a52" d="m 8319,3710 c -76,-23 -125,-93 -116,-168 12,-112 126,-172 227,-120 65,34 93,79 88,146 -6,64 -29,99 -88,130 -46,23 -68,26 -111,12 z" transform="matrix(.05 0 0 -.05 -258.353 251.768)" class="color1f1f1f svgShape"></path><path fill="#071a52" d="m 7390,3688 c -62,-32 -92,-85 -87,-156 8,-120 122,-186 227,-132 85,43 114,141 67,225 -24,43 -91,85 -137,85 -14,0 -46,-10 -70,-22 z" transform="matrix(.05 0 0 -.05 -257.757 251.744)" class="color1f1f1f svgShape"></path><path fill="#071a52" d="m 7858,3320 c -96,-51 -112,-185 -30,-262 136,-127 341,35 249,197 -46,81 -137,108 -219,65 z" transform="matrix(.05 0 0 -.05 -258.078 251.508)" class="color1f1f1f svgShape"></path><path fill="#071a52" d="m 2841,3289 c -206,-26 -352,-211 -351,-444 1,-88 13,-144 50,-218 31,-62 32,-58 -17,-73 -10,-2 -13,-47 -13,-177 v -173 l 55,-54 55,-54 40,39 40,39 v 126 c 0,128 4,148 25,130 47,-39 318,-54 444,-25 36,9 71,13 77,11 8,-3 14,-30 16,-73 l 3,-68 h 90 90 l 3,138 c 2,116 0,138 -13,142 -8,3 -21,7 -29,9 -10,3 -3,25 27,85 34,69 41,93 45,162 8,140 -32,255 -123,357 -65,72 -146,110 -261,122 -103,11 -163,11 -253,-1 z m 351,-285 c 23,-16 49,-45 59,-64 27,-49 25,-134 -3,-190 -42,-80 -91,-100 -253,-99 -183,0 -231,18 -273,100 -30,57 -28,163 4,206 52,69 107,83 302,79 118,-3 125,-4 164,-32 z" transform="matrix(.05 0 0 -.05 -255.185 250.643)" class="color1f1f1f svgShape"></path><path fill="#071a52" d="m 1657,3223 c -4,-7 131,-230 162,-267 9,-11 36,-16 94,-18 l 82,-3 5,-121 5,-121 77,-84 77,-84 60,60 61,60 v 290 l 1,290 -310,3 c -170,1 -312,-1 -314,-5 z" transform="matrix(.05 0 0 -.05 -254.288 251.072)" class="color1f1f1f svgShape"></path><path fill="#071a52" d="m 2910,1996 v -126 l 48,-35 c 61,-44 339,-195 374,-202 24,-5 32,2 77,63 l 51,69 -2,125 -3,125 -190,5 -190,5 -5,45 -5,45 -77,3 -78,3 z" transform="matrix(.05 0 0 -.05 -255.05 250.537)" class="color1f1f1f svgShape"></path></g></svg></g></svg>